<?xml version="1.0" standalone="no"?>
<!DOCTYPE svg PUBLIC "-//W3C//DTD SVG 20010904//EN"
 "http://www.w3.org/TR/2001/REC-SVG-20010904/DTD/svg10.dtd">
<svg version="1.0" xmlns="http://www.w3.org/2000/svg"
 width="278.000000pt" height="274.000000pt" viewBox="0 0 278.000000 274.000000"
 preserveAspectRatio="xMidYMid meet">
<metadata>
Created by potrace 1.10, written by Peter Selinger 2001-2011
</metadata>
<g transform="translate(0.000000,274.000000) scale(0.100000,-0.100000)"
fill="#549926" stroke="none">
<path d="M1300 2554 c-63 -7 -135 -18 -160 -24 -25 -6 -57 -14 -73 -17 -15 -3
-30 -9 -33 -14 -3 -5 -12 -9 -20 -9 -15 0 -82 -28 -149 -62 -22 -12 -50 -26
-62 -32 -13 -6 -23 -14 -23 -18 0 -5 -5 -8 -12 -8 -20 0 -121 -81 -209 -169
-81 -82 -187 -226 -221 -301 -39 -88 -48 -108 -64 -155 -43 -128 -58 -227 -58
-390 0 -137 5 -183 32 -300 28 -119 114 -302 194 -410 303 -408 794 -576 1305
-446 24 6 61 19 85 28 35 14 38 18 22 24 -10 4 -35 8 -54 8 -19 1 -67 8 -105
16 -39 9 -85 18 -103 22 -18 3 -35 10 -38 14 -3 5 -15 9 -28 9 -12 0 -26 4
-31 8 -6 4 -28 14 -50 21 -66 21 -199 73 -210 83 -5 4 -16 8 -25 8 -27 0 -282
134 -297 156 -13 20 -12 25 10 49 20 23 32 28 68 28 25 -1 67 -11 95 -23 27
-12 59 -26 72 -31 12 -5 33 -13 47 -19 14 -5 37 -16 52 -22 25 -13 51 -13 293
-9 l115 2 -55 25 c-30 14 -63 30 -72 35 -10 5 -26 9 -36 9 -28 0 -72 45 -72
74 0 42 33 56 135 56 97 0 205 -18 256 -44 18 -9 38 -16 46 -16 7 0 13 -4 13
-10 0 -5 6 -10 13 -10 15 0 67 -41 126 -97 l44 -43 122 0 122 0 34 41 c19 23
38 49 43 58 5 9 12 18 15 21 35 29 113 186 149 300 74 230 85 351 52 575 -25
173 -84 324 -189 484 -64 96 -211 254 -268 287 -18 10 -33 22 -33 26 0 4 -5 8
-11 8 -5 0 -37 18 -69 40 -32 22 -66 40 -74 40 -9 0 -16 5 -16 10 0 6 -9 10
-20 10 -11 0 -20 5 -20 10 0 6 -9 10 -20 10 -11 0 -29 5 -40 10 -11 6 -29 15
-40 20 -11 6 -31 10 -44 10 -14 0 -27 4 -30 9 -7 10 -52 18 -191 31 -55 5
-104 11 -110 13 -5 1 -62 -3 -125 -9z m-30 -616 c62 -14 120 -64 147 -126 19
-45 33 -54 33 -22 0 13 7 20 20 20 32 0 34 -25 11 -93 -20 -59 -20 -63 -4 -72
36 -20 93 -86 93 -108 0 -42 25 -106 60 -154 19 -26 41 -61 48 -78 8 -16 18
-38 23 -47 12 -24 11 -145 -1 -153 -5 -3 -10 -14 -10 -24 0 -30 -62 -88 -125
-118 -51 -23 -73 -27 -150 -28 -79 0 -97 3 -146 28 -101 50 -139 111 -139 222
0 40 5 77 10 80 6 3 10 14 10 23 0 9 22 46 49 82 39 51 52 79 62 129 16 76 64
137 118 147 22 5 37 16 47 36 20 39 12 58 -26 58 -59 0 -124 23 -155 54 -84
84 -100 151 -38 155 6 1 35 -4 63 -11z"/>
</g>
</svg>
